<svg width="16" height="16" viewBox="0 0 16 16" fill="none" xmlns="http://www.w3.org/2000/svg">
<path d="M13.7948 6.98072L13.7948 6.53984L14.2357 6.53986L14.2357 6.98074L13.7948 6.98072ZM14.2357 6.98074L14.2357 6.53986L14.6766 6.53988L14.6766 6.98076L14.2357 6.98074ZM14.6766 6.98076L14.6766 6.53988L15.1175 6.5399L15.1175 6.98078L14.6766 6.98076ZM13.3539 7.42158L13.3539 6.9807L13.7948 6.98072L13.7948 7.4216L13.3539 7.42158ZM15.1174 7.42166L15.1175 6.98078L15.5583 6.9808L15.5583 7.42168L15.1174 7.42166ZM12.913 7.86243L12.913 7.42155L13.3539 7.42158L13.3539 7.86245L12.913 7.86243ZM14.2357 7.8625L14.2357 7.42162L14.6766 7.42164L14.6765 7.86252L14.2357 7.8625ZM14.6765 7.86252L14.6766 7.42164L15.1174 7.42166L15.1174 7.86254L14.6765 7.86252ZM15.5583 7.86256L15.5583 7.42168L15.9992 7.4217L15.9992 7.86258L15.5583 7.86256ZM12.913 8.30331L12.913 7.86243L13.3539 7.86245L13.3539 8.30333L12.913 8.30331ZM13.7948 8.30336L13.7948 7.86248L14.2357 7.8625L14.2356 8.30338L13.7948 8.30336ZM14.6765 8.3034L14.6765 7.86252L15.1174 7.86254L15.1174 8.30342L14.6765 8.3034ZM15.5583 8.30344L15.5583 7.86256L15.9992 7.86258L15.9992 8.30346L15.5583 8.30344ZM12.913 8.74419L12.913 8.30331L13.3539 8.30333L13.3539 8.74421L12.913 8.74419ZM13.7947 8.74424L13.7948 8.30336L14.2356 8.30338L14.2356 8.74426L13.7947 8.74424ZM14.6765 8.74428L14.6765 8.3034L15.1174 8.30342L15.1174 8.7443L14.6765 8.74428ZM15.5583 8.74432L15.5583 8.30344L15.9992 8.30346L15.9991 8.74434L15.5583 8.74432ZM12.913 9.18507L12.913 8.74419L13.3539 8.74421L13.3538 9.18509L12.913 9.18507ZM14.2356 9.18514L14.2356 8.74426L14.6765 8.74428L14.6765 9.18516L14.2356 9.18514ZM14.6765 9.18516L14.6765 8.74428L15.1174 8.7443L15.1174 9.18518L14.6765 9.18516ZM15.1174 9.18518L15.1174 8.7443L15.5583 8.74432L15.5582 9.1852L15.1174 9.18518ZM13.3538 9.62597L13.3538 9.18509L13.7947 9.18511L13.7947 9.62599L13.3538 9.62597ZM13.7947 10.0669L13.7947 9.62599L14.2356 9.62602L14.2356 10.0669L13.7947 10.0669ZM14.2356 10.0669L14.2356 9.62602L14.6765 9.62604L14.6764 10.0669L14.2356 10.0669ZM14.6764 10.0669L14.6765 9.62604L15.1173 9.62606L15.1173 10.0669L14.6764 10.0669ZM15.1173 10.0669L15.1173 9.62606L15.5582 9.62608L15.5582 10.067L15.1173 10.0669Z" fill="#528F85"/>
<path d="M11.42 6.68288C11.3466 6.68288 11.2786 6.6645 11.2161 6.62776C11.1537 6.59102 11.1041 6.54142 11.0674 6.47896C11.0306 6.4165 11.0123 6.34853 11.0123 6.27505C11.0123 6.20157 11.0306 6.1336 11.0674 6.07114C11.1041 6.00869 11.1537 5.95909 11.2162 5.92235C11.2786 5.88562 11.3466 5.86725 11.4201 5.86725C11.4936 5.86726 11.5615 5.88563 11.624 5.92237C11.6864 5.95912 11.736 6.00872 11.7728 6.07118C11.8095 6.13364 11.8279 6.20161 11.8279 6.27509C11.8279 6.34857 11.8095 6.41654 11.7728 6.47899C11.736 6.54145 11.6864 6.59104 11.624 6.62778C11.5615 6.66452 11.4935 6.68288 11.42 6.68288ZM11.7451 9.58719L12.6433 9.58723L12.6433 10.0667L10.0476 10.0666L10.0477 9.58711L11.1609 9.58716L11.161 7.63076L10.2131 7.63071L10.2131 7.14575L11.7452 7.14582L11.7451 9.58719Z" fill="#1F1F29"/>
<path d="M8.17449 7.09064C8.4831 7.09066 8.72191 7.18436 8.8909 7.37174C9.0599 7.55912 9.14439 7.82365 9.14437 8.16534L9.14428 10.0666L8.56011 10.0666L8.5602 8.16531C8.56021 7.98161 8.51429 7.83924 8.42245 7.7382C8.3306 7.63716 8.20202 7.58664 8.03669 7.58663C7.57744 7.58661 7.3478 7.86582 7.34777 8.42426L7.34769 10.0665L6.76353 10.0665L6.76367 7.14569L7.29272 7.14571L7.33954 7.67477L7.40292 7.67477C7.41946 7.47821 7.49111 7.33218 7.61787 7.23666C7.74463 7.1393 7.93017 7.09063 8.17449 7.09064Z" fill="#1F1F29"/>
<path d="M3.94144 7.7076L3.94147 7.23586L4.41321 7.23589L4.41319 7.70763L3.94144 7.7076ZM4.41319 7.70763L4.41321 7.23589L4.88495 7.23591L4.88493 7.70765L4.41319 7.70763ZM4.88493 7.70765L4.88495 7.23591L5.35669 7.23593L5.35667 7.70767L4.88493 7.70765ZM5.35664 8.17941L5.35667 7.70767L5.82841 7.7077L5.82839 8.17944L5.35664 8.17941ZM3.9414 8.65109L3.94142 8.17934L4.41316 8.17937L4.41314 8.65111L3.9414 8.65109ZM4.41314 8.65111L4.41316 8.17937L4.8849 8.17939L4.88488 8.65113L4.41314 8.65111ZM4.88488 8.65113L4.8849 8.17939L5.35664 8.17941L5.35662 8.65115L4.88488 8.65113ZM5.35662 8.65115L5.35664 8.17941L5.82839 8.17944L5.82836 8.65118L5.35662 8.65115ZM3.46963 9.1228L3.46966 8.65106L3.9414 8.65109L3.94138 9.12283L3.46963 9.1228ZM5.3566 9.1229L5.35662 8.65115L5.82836 8.65118L5.82834 9.12292L5.3566 9.1229ZM3.46961 9.59454L3.46963 9.1228L3.94138 9.12283L3.94135 9.59457L3.46961 9.59454ZM5.35658 9.59464L5.3566 9.1229L5.82834 9.12292L5.82832 9.59466L5.35658 9.59464ZM3.94133 10.0663L3.94135 9.59457L4.41309 9.59459L4.41307 10.0663L3.94133 10.0663ZM4.41307 10.0663L4.41309 9.59459L4.88483 9.59461L4.88481 10.0664L4.41307 10.0663ZM4.88481 10.0664L4.88483 9.59461L5.35658 9.59464L5.35655 10.0664L4.88481 10.0664ZM5.35655 10.0664L5.35658 9.59464L5.82832 9.59466L5.82829 10.0664L5.35655 10.0664Z" fill="#AD2F55"/>
<path d="M2.11071 7.09043C2.31278 7.09044 2.45974 7.14464 2.55158 7.25303C2.64343 7.36142 2.68934 7.53685 2.68933 7.77934L2.68922 10.0664L2.10505 10.0664L2.10516 7.83442C2.10517 7.73155 2.0868 7.65531 2.05006 7.60571C2.01333 7.55611 1.95638 7.53131 1.87923 7.5313C1.68818 7.53129 1.59265 7.66355 1.59264 7.92808L1.59253 10.0663L1.09654 10.0663L1.09665 7.77926C1.09666 7.61393 1.01951 7.53126 0.865204 7.53125C0.677831 7.53124 0.584137 7.6635 0.584124 7.92803L0.58402 10.0663L-0.000144887 10.0663L-2.68309e-06 7.14544L0.518031 7.14547L0.55659 7.50919L0.600678 7.5092C0.611707 7.36775 0.657637 7.26304 0.738468 7.19508C0.821136 7.12527 0.94238 7.09038 1.1022 7.09039C1.22711 7.09039 1.32998 7.12622 1.41081 7.19787C1.49163 7.26767 1.54582 7.37147 1.57337 7.50924L1.62021 7.50925C1.6294 7.38984 1.67625 7.29065 1.76076 7.21166C1.8471 7.13084 1.96375 7.09043 2.11071 7.09043Z" fill="#1F1F29"/>
<path d="M13.6416 1.83163L13.6417 1.35989L14.1134 1.35991L14.1134 1.83165L13.6416 1.83163ZM14.1134 1.83165L14.1134 1.35991L14.5851 1.35993L14.5851 1.83167L14.1134 1.83165ZM14.5851 1.83167L14.5851 1.35993L15.0569 1.35996L15.0569 1.8317L14.5851 1.83167ZM13.1699 2.30335L13.1699 1.8316L13.6416 1.83163L13.6416 2.30337L13.1699 2.30335ZM15.0568 2.30344L15.0569 1.8317L15.5286 1.83172L15.5286 2.30346L15.0568 2.30344ZM13.1699 2.77509L13.1699 2.30335L13.6416 2.30337L13.6416 2.77511L13.1699 2.77509ZM15.0568 2.77518L15.0568 2.30344L15.5286 2.30346L15.5286 2.7752L15.0568 2.77518ZM13.1698 3.24683L13.1699 2.77509L13.6416 2.77511L13.6416 3.24685L13.1698 3.24683ZM14.1133 3.24687L14.1133 2.77513L14.5851 2.77516L14.5851 3.2469L14.1133 3.24687ZM15.0568 3.24692L15.0568 2.77518L15.5286 2.7752L15.5285 3.24694L15.0568 3.24692ZM13.1698 3.71857L13.1698 3.24683L13.6416 3.24685L13.6415 3.71859L13.1698 3.71857ZM14.1133 3.71861L14.1133 3.24687L14.5851 3.2469L14.585 3.71864L14.1133 3.71861ZM15.0568 3.71866L15.0568 3.24692L15.5285 3.24694L15.5285 3.71868L15.0568 3.71866ZM13.1698 4.19031L13.1698 3.71857L13.6415 3.71859L13.6415 4.19033L13.1698 4.19031ZM15.0567 4.1904L15.0568 3.71866L15.5285 3.71868L15.5285 4.19042L15.0567 4.1904ZM13.1698 4.66205L13.1698 4.19031L13.6415 4.19033L13.6415 4.66207L13.1698 4.66205ZM15.0567 4.66214L15.0567 4.1904L15.5285 4.19042L15.5285 4.66217L15.0567 4.66214ZM13.6415 5.13381L13.6415 4.66207L14.1132 4.6621L14.1132 5.13384L13.6415 5.13381ZM14.1132 5.13384L14.1132 4.6621L14.585 4.66212L14.585 5.13386L14.1132 5.13384ZM14.585 5.13386L14.585 4.66212L15.0567 4.66214L15.0567 5.13388L14.585 5.13386Z" fill="#45AACB"/>
<path d="M11.8103 5.13383L11.1077 3.9324C10.9791 3.95811 10.8477 3.97096 10.7136 3.97096L10.4161 3.97094L10.416 5.13376L9.83183 5.13373L9.83203 1.00049L10.4162 1.00052L10.4161 3.4474L10.5759 3.44741C10.8221 3.44742 11.0223 3.40701 11.1766 3.32619C11.3309 3.24537 11.4522 3.11587 11.5403 2.93769C11.6304 2.7595 11.6965 2.51794 11.7388 2.213L12.345 2.21303C12.2513 2.92027 12.0207 3.41257 11.6533 3.68994L12.5322 5.13386L11.8103 5.13383Z" fill="#1F1F29"/>
<path d="M7.96334 5.18883C7.6437 5.18882 7.37183 5.13002 7.14772 5.01244C6.92361 4.89486 6.75278 4.7231 6.63522 4.49714C6.51767 4.26935 6.4589 3.99288 6.45891 3.66773C6.45893 3.34993 6.51313 3.07805 6.62152 2.85211C6.72992 2.62616 6.88883 2.45441 7.09825 2.33685C7.30767 2.21746 7.56118 2.15777 7.85878 2.15778C8.01676 2.15779 8.17658 2.17617 8.33823 2.21292C8.50172 2.24966 8.65511 2.3452 8.79838 2.49951C8.9435 2.65199 9.01605 2.88529 9.01603 3.19942L8.41534 3.19939C8.41534 3.03589 8.36667 2.90914 8.26931 2.81912C8.17196 2.72727 8.03694 2.68134 7.86426 2.68133C7.61076 2.68132 7.41419 2.76489 7.27457 2.93205C7.13495 3.09921 7.06514 3.33526 7.06512 3.6402C7.06511 3.9727 7.14776 4.22713 7.31308 4.40349C7.48024 4.57801 7.71904 4.66528 8.0295 4.66529C8.30504 4.66531 8.59162 4.64144 8.88921 4.59369L8.95532 5.10622C8.68895 5.16131 8.35829 5.18885 7.96334 5.18883Z" fill="#1F1F29"/>
<path d="M3.30662 2.81888L3.30664 2.35596L3.76956 2.35598L3.76954 2.8189L3.30662 2.81888ZM3.76954 2.8189L3.76956 2.35598L4.23249 2.356L4.23247 2.81893L3.76954 2.8189ZM4.23244 3.28185L4.23247 2.81893L4.69539 2.81895L4.69537 3.28187L4.23244 3.28185ZM4.69537 3.28187L4.69539 2.81895L5.15831 2.81897L5.15829 3.28189L4.69537 3.28187ZM5.15827 3.74482L5.15829 3.28189L5.62121 3.28192L5.62119 3.74484L5.15827 3.74482ZM5.62119 3.74484L5.62121 3.28192L6.08414 3.28194L6.08411 3.74486L5.62119 3.74484ZM4.2324 4.2077L4.23242 3.74477L4.69534 3.74479L4.69532 4.20772L4.2324 4.2077ZM4.69532 4.20772L4.69534 3.74479L5.15827 3.74482L5.15824 4.20774L4.69532 4.20772ZM3.30653 4.67057L3.30655 4.20765L3.76947 4.20767L3.76945 4.6706L3.30653 4.67057ZM3.76945 4.6706L3.76947 4.20767L4.2324 4.2077L4.23237 4.67062L3.76945 4.6706Z" fill="#4B0082"/>
<path d="M1.41173 2.15738C1.72035 2.15739 1.95916 2.25109 2.12815 2.43847C2.29714 2.62585 2.38163 2.89039 2.38162 3.23207L2.38152 5.13336L1.79736 5.13333L1.79745 3.23204C1.79746 3.04834 1.75154 2.90597 1.6597 2.80493C1.56785 2.70389 1.43927 2.65337 1.27394 2.65336C0.814686 2.65334 0.585048 2.93255 0.585021 3.491L0.584941 5.13327L0.000775331 5.13324L0.000976562 1L0.585142 1.00003L0.585057 2.7415L0.640167 2.7415C0.65671 2.54495 0.72836 2.39891 0.855117 2.30339C0.981875 2.20604 1.16741 2.15737 1.41173 2.15738Z" fill="#1F1F29"/>
<path d="M11.9143 12.1459L11.9144 11.6698L12.3905 11.6698L12.3905 12.1459L11.9143 12.1459ZM11.4382 12.622L11.4382 12.1459L11.9143 12.1459L11.9143 12.6221L11.4382 12.622ZM11.9143 12.6221L11.9143 12.1459L12.3905 12.1459L12.3905 12.6221L11.9143 12.6221ZM10.962 13.0982L10.962 12.622L11.4382 12.622L11.4381 13.0982L10.962 13.0982ZM11.9143 13.0982L11.9143 12.6221L12.3905 12.6221L12.3904 13.0982L11.9143 13.0982ZM10.4858 13.5743L10.4858 13.0982L10.962 13.0982L10.962 13.5743L10.4858 13.5743ZM11.9143 13.5744L11.9143 13.0982L12.3904 13.0982L12.3904 13.5744L11.9143 13.5744ZM10.0096 14.0504L10.0097 13.5743L10.4858 13.5743L10.4858 14.0505L10.0096 14.0504ZM11.9142 14.0505L11.9143 13.5744L12.3904 13.5744L12.3904 14.0505L11.9142 14.0505ZM10.0096 14.5266L10.0096 14.0504L10.4858 14.0505L10.4858 14.5266L10.0096 14.5266ZM10.4858 14.5266L10.4858 14.0505L10.9619 14.0505L10.9619 14.5266L10.4858 14.5266ZM10.9619 14.5266L10.9619 14.0505L11.4381 14.0505L11.4381 14.5266L10.9619 14.5266ZM11.4381 14.5266L11.4381 14.0505L11.9142 14.0505L11.9142 14.5267L11.4381 14.5266ZM11.9142 14.5267L11.9142 14.0505L12.3904 14.0505L12.3904 14.5267L11.9142 14.5267ZM12.3904 14.5267L12.3904 14.0505L12.8665 14.0506L12.8665 14.5267L12.3904 14.5267ZM11.9142 15.0028L11.9142 14.5267L12.3904 14.5267L12.3904 15.0028L11.9142 15.0028ZM11.9142 15.479L11.9142 15.0028L12.3904 15.0028L12.3903 15.479L11.9142 15.479Z" fill="#FCBC08"/>
<path d="M9.24618 14.9665L9.24615 15.479L6.70008 15.4789L6.70011 14.8617C7.29715 14.5329 7.74447 14.1894 8.04208 13.8312C8.34153 13.4711 8.49126 13.1001 8.49128 12.718C8.49131 12.2514 8.26353 12.0181 7.80795 12.0181C7.62242 12.018 7.47913 12.0649 7.37809 12.1586C7.27889 12.2504 7.22928 12.3818 7.22927 12.5526L6.6396 12.5526C6.63961 12.334 6.68646 12.1466 6.78016 11.9904C6.87569 11.8343 7.01347 11.7158 7.1935 11.635C7.37536 11.5524 7.59305 11.511 7.84656 11.511C8.25804 11.5111 8.56665 11.6094 8.77239 11.8059C8.97812 12.0007 9.08098 12.2955 9.08096 12.6905C9.08094 13.0891 8.95509 13.4712 8.7034 13.8367C8.45172 14.2004 8.07052 14.5495 7.55982 14.8838L7.55982 14.9664L9.24618 14.9665Z" fill="#1F1F29"/>
<path d="M3.84624 12.1456L3.84627 11.6695L4.32242 11.6695L4.32239 12.1456L3.84624 12.1456ZM4.32239 12.1456L4.32242 11.6695L4.79857 11.6695L4.79854 12.1457L4.32239 12.1456ZM4.79854 12.1457L4.79857 11.6695L5.27472 11.6695L5.27469 12.1457L4.79854 12.1457ZM3.37007 12.6217L3.37009 12.1456L3.84624 12.1456L3.84622 12.6218L3.37007 12.6217ZM5.27467 12.6218L5.27469 12.1457L5.75084 12.1457L5.75082 12.6218L5.27467 12.6218ZM3.37005 13.0979L3.37007 12.6217L3.84622 12.6218L3.8462 13.0979L3.37005 13.0979ZM5.27465 13.098L5.27467 12.6218L5.75082 12.6218L5.7508 13.098L5.27465 13.098ZM3.37002 13.574L3.37005 13.0979L3.8462 13.0979L3.84617 13.5741L3.37002 13.574ZM4.32232 13.5741L4.32235 13.0979L4.7985 13.098L4.79847 13.5741L4.32232 13.5741ZM5.27462 13.5741L5.27465 13.098L5.7508 13.098L5.75077 13.5741L5.27462 13.5741ZM3.37 14.0502L3.37002 13.574L3.84617 13.5741L3.84615 14.0502L3.37 14.0502ZM4.3223 14.0502L4.32232 13.5741L4.79847 13.5741L4.79845 14.0503L4.3223 14.0502ZM5.2746 14.0503L5.27462 13.5741L5.75077 13.5741L5.75075 14.0503L5.2746 14.0503ZM3.36998 14.5263L3.37 14.0502L3.84615 14.0502L3.84613 14.5264L3.36998 14.5263ZM5.27458 14.5264L5.2746 14.0503L5.75075 14.0503L5.75073 14.5264L5.27458 14.5264ZM3.36995 15.0025L3.36998 14.5263L3.84613 14.5264L3.8461 15.0025L3.36995 15.0025ZM5.27455 15.0026L5.27458 14.5264L5.75073 14.5264L5.7507 15.0026L5.27455 15.0026ZM3.84608 15.4787L3.8461 15.0025L4.32225 15.0025L4.32223 15.4787L3.84608 15.4787ZM4.32223 15.4787L4.32225 15.0025L4.7984 15.0026L4.79838 15.4787L4.32223 15.4787ZM4.79838 15.4787L4.7984 15.0026L5.27455 15.0026L5.27453 15.4787L4.79838 15.4787Z" fill="#45AACB"/>
<path d="M2.60653 14.966L2.60651 15.4785L0.0604277 15.4784L0.0604578 14.8612C0.657498 14.5324 1.10482 14.1889 1.40243 13.8307C1.70188 13.4707 1.85162 13.0996 1.85163 12.7175C1.85166 12.2509 1.62388 12.0176 1.16831 12.0176C0.982769 12.0176 0.839481 12.0644 0.738442 12.1581C0.639239 12.2499 0.589634 12.3813 0.589626 12.5521L-5.07105e-05 12.5521C-4.00675e-05 12.3335 0.0468125 12.1461 0.140507 11.99C0.236038 11.8338 0.373819 11.7153 0.553849 11.6345C0.735716 11.5519 0.953402 11.5105 1.20691 11.5106C1.61839 11.5106 1.92701 11.6089 2.13274 11.8054C2.33847 12.0002 2.44133 12.295 2.44131 12.69C2.44129 13.0886 2.31544 13.4707 2.06375 13.8362C1.81207 14.2 1.43087 14.549 0.920172 14.8833L0.920168 14.9659L2.60653 14.966Z" fill="#1F1F29"/>
</svg>
