<svg id="LOGO_SPDigital" xmlns="http://www.w3.org/2000/svg" width="168.5" height="60.677" viewBox="0 0 168.5 60.677">
  <path id="SP" d="M0,17.318l2.022-.886A4.67,4.67,0,0,0,6.7,19.72c2.277,0,3.794-1.265,3.794-3.54,0-5.309-9.987-3.919-9.987-10.746C.506,2.4,2.781,0,6.574,0A6.45,6.45,0,0,1,12.64,4.044l-2.022.886A4.353,4.353,0,0,0,6.7,2.274c-2.274,0-3.539,1.39-3.539,3.16,0,4.8,9.987,3.792,9.987,10.619,0,3.287-2.4,5.941-6.448,5.941A6.726,6.726,0,0,1,0,17.318ZM16.559,21.49V.379h5.816c3.792,0,6.32,2.274,6.32,6.066a5.939,5.939,0,0,1-6.32,6.2H19.088V21.49Zm2.529-11h3.161a3.723,3.723,0,0,0,4.046-4.046,3.688,3.688,0,0,0-4.046-3.919H19.088Z" transform="translate(59.413 26.294)" fill="#a7a9ac" stroke="rgba(0,0,0,0)" stroke-miterlimit="10" stroke-width="1"/>
  <path id="Digital" d="M26.927,26.293l.884-1.9a10.114,10.114,0,0,0,4.8,1.264c3.034,0,5.561-1.264,5.561-4.8V19.468a6.274,6.274,0,0,1-5.435,2.907c-4.55,0-7.584-3.414-7.584-8.217s3.16-8.344,7.584-8.344A6.69,6.69,0,0,1,38.3,8.722V6.194h2.275V19.847c0,5.941-3.413,7.963-7.963,7.963A13.016,13.016,0,0,1,26.927,26.293Zm.5-12.261c0,3.665,2.4,6.067,5.436,6.067,3.286,0,5.308-2.655,5.308-6.067,0-3.667-2.4-6.067-5.435-6.067S27.432,10.492,27.432,14.032Zm31.477,3.034c0-2.907,2.527-5.057,6.068-5.057A6.187,6.187,0,0,1,69.147,13.4V11.5c0-2.274-1.517-3.539-3.793-3.539a9.738,9.738,0,0,0-4.677,1.391L59.666,7.584a11.258,11.258,0,0,1,5.815-1.769c4.3,0,6.068,2.4,6.068,5.815V22H69.526L69.273,20.6a5.483,5.483,0,0,1-4.3,1.771C61.563,22.376,58.908,20.226,58.908,17.066Zm2.527,0c-.125,1.9,1.518,3.286,3.919,3.286,2.276,0,3.919-1.391,3.919-3.286,0-2.022-1.516-3.286-3.919-3.286S61.435,15.17,61.435,17.066ZM0,14.158c0-4.8,3.034-8.344,7.585-8.344a6.686,6.686,0,0,1,5.562,2.907V0h2.4V22h-2.4V19.468a6.273,6.273,0,0,1-5.436,2.907C3.161,22.376,0,18.961,0,14.158Zm2.4,0c0,3.665,2.275,6.067,5.308,6.067,3.288,0,5.31-2.781,5.31-6.067,0-3.919-2.4-6.194-5.31-6.194C4.677,7.965,2.4,10.492,2.4,14.158ZM51.07,16.687V8.217h-1.9V6.194h1.9V2.907H53.6V6.194h3.412V8.217H53.6v8.089c0,2.907.886,3.667,2.908,3.667h.633v2.148a8.453,8.453,0,0,1-1.517.128C52.462,22.249,51.07,20.226,51.07,16.687ZM75.467,22V0h2.4V22ZM44.5,22V6.194h2.4V22ZM19.6,22V6.194H22V22ZM43.992,2.15a1.643,1.643,0,1,1,3.286,0,1.643,1.643,0,1,1-3.286,0Zm-24.9,0a1.644,1.644,0,0,1,3.287,0,1.644,1.644,0,0,1-3.287,0Z" transform="translate(90.13 25.914)" fill="#58595b" stroke="rgba(0,0,0,0)" stroke-miterlimit="10" stroke-width="1"/>
  <g id="D">
    <path id="Path_22" data-name="Path 22" d="M5339.754,363a22.754,22.754,0,1,0,22.754,22.754A22.82,22.82,0,0,0,5339.754,363Zm0,32.867a10.113,10.113,0,1,1,10.113-10.113A10.143,10.143,0,0,1,5339.754,395.867Z" transform="translate(-5317 -347.831)" fill="#1296b0" fill-rule="evenodd"/>
    <path id="Path_23" data-name="Path 23" d="M5349.867,385.181v-.126a10.132,10.132,0,1,1-10.113-11,9.84,9.84,0,0,1,4.677,1.138c-8.343-4.551-27.431-4.8-27.431,8.975a22.754,22.754,0,0,0,45.508,0V369C5362.508,376.585,5356.946,384.422,5349.867,385.181Z" transform="translate(-5317 -346.246)" fill="#0ab1b1" fill-rule="evenodd"/>
    <path id="Path_24" data-name="Path 24" d="M5345.113,357.321v31.6A10.143,10.143,0,0,1,5335,399.036c18.962,0,22.754-12.641,22.754-16.433V357.321a6.321,6.321,0,0,0-12.641,0Z" transform="translate(-5312.246 -351)" fill="#5bc4bf" fill-rule="evenodd"/>
  </g>
</svg>
